<?xml version="1.0" encoding="UTF-8" standalone="no"?>
<!-- Uploaded to: SVG Repo, www.svgrepo.com, Generator: SVG Repo Mixer Tools -->

<svg
   fill="#000000"
   version="1.1"
   id="Capa_1"
   width="800px"
   height="800px"
   viewBox="0 0 491.582 491.582"
   xml:space="preserve"
   sodipodi:docname="board_outline.svg"
   inkscape:version="1.3.2 (091e20e, 2023-11-25)"
   xmlns:inkscape="http://www.inkscape.org/namespaces/inkscape"
   xmlns:sodipodi="http://sodipodi.sourceforge.net/DTD/sodipodi-0.dtd"
   xmlns="http://www.w3.org/2000/svg"
   xmlns:svg="http://www.w3.org/2000/svg"><defs
   id="defs3" /><sodipodi:namedview
   id="namedview3"
   pagecolor="#505050"
   bordercolor="#ffffff"
   borderopacity="1"
   inkscape:showpageshadow="0"
   inkscape:pageopacity="0"
   inkscape:pagecheckerboard="1"
   inkscape:deskcolor="#d1d1d1"
   inkscape:zoom="6.9935957"
   inkscape:cx="229.06672"
   inkscape:cy="191.38939"
   inkscape:window-width="2560"
   inkscape:window-height="1412"
   inkscape:window-x="0"
   inkscape:window-y="0"
   inkscape:window-maximized="1"
   inkscape:current-layer="Capa_1"
   showgrid="false" />
<g
   id="g3"
   transform="matrix(0.2081855,0,0,0.18859274,91.178201,72.219326)"
   style="fill:none;stroke:#000000;stroke-opacity:1">
	<g
   id="g2"
   style="fill:none;stroke:#000000;stroke-opacity:1">
		<path
   d="M 245.791,0 C 153.799,0 78.957,74.841 78.957,166.833 c 0,36.967 21.764,93.187 68.493,176.926 31.887,57.138 63.627,105.4 64.966,107.433 l 22.941,34.773 c 2.313,3.507 6.232,5.617 10.434,5.617 4.202,0 8.121,-2.11 10.434,-5.617 l 22.94,-34.771 C 280.491,449.184 312,401.339 344.132,343.759 390.861,260.024 412.625,203.804 412.625,166.833 412.625,74.841 337.783,0 245.791,0 Z"
   id="path1"
   sodipodi:nodetypes="sscccscccss"
   style="fill:none;stroke:#000000;stroke-opacity:1" />
		
	</g>
</g>
</svg>
